# xmcd
#
# Track frame offsets:
#	150
#	14050
#	32546
#	44892
#	66078
#	82447
#	99778
#	115886
#	138091
#	149038
#	162576
#	174267
#	199259
#	220444
#
# Disc length: 3078 seconds
# Revision: 0
# Processed by: cddbd v1.5.2PL0 Copyright (c) Steve Scherf et al.
# Submitted via: dBpowerAMP V12.0
#
DISCID=d70c040e
DTITLE=Corridors - Through These Eyes
DYEAR=2014
DGENRE=Blues
TTITLE0=Someone
TTITLE1=No Choice
TTITLE2=Chinese Whispers
TTITLE3=Sleeping Dogs
TTITLE4=She's Not Obvious
TTITLE5=High and Dry
TTITLE6=Buddy Can You Spare Me a Paradigm
TTITLE7=One Day at a Time
TTITLE8=Down Below
TTITLE9=Wrong Place, Wrong Time
TTITLE10=One Crowded Hour
TTITLE11=Permanent Dream
TTITLE12=No Mercy
TTITLE13=Zen
EXTD=
EXTT0=
EXTT1=
EXTT2=
EXTT3=
EXTT4=
EXTT5=
EXTT6=
EXTT7=
EXTT8=
EXTT9=
EXTT10=
EXTT11=
EXTT12=
EXTT13=
PLAYORDER=
